<svg width="266" height="175" viewBox="0 0 266 175" fill="none" xmlns="http://www.w3.org/2000/svg">
<g opacity="0.1">
<path d="M140.079 -143L187.949 -118.49L239.13 -101.972L255.647 -50.7912L280.158 -2.92114L255.647 44.9489L239.13 96.1296L187.949 112.647L140.079 137.158L92.2088 112.647L41.0281 96.1296L24.5104 44.9489L0 -2.92114L24.5104 -50.7912L41.0281 -101.972L92.2088 -118.49L140.079 -143Z" fill="url(#paint0_linear_661_8549)"/>
<path d="M140.077 -128.383L182.952 -106.43L228.792 -91.6359L243.586 -45.7958L265.539 -2.92088L243.586 39.954L228.792 85.7941L182.952 100.588L140.077 122.541L97.2023 100.588L51.3622 85.7941L36.568 39.954L14.6152 -2.92088L36.568 -45.7958L51.3622 -91.6359L97.2023 -106.43L140.077 -128.383Z" fill="url(#paint1_linear_661_8549)"/>
<path d="M140.078 -120.262L180.178 -99.7298L223.051 -85.8932L236.887 -43.0201L257.419 -2.9203L236.887 37.1795L223.051 80.0526L180.178 93.8892L140.078 114.421L99.9779 93.8892L57.1048 80.0526L43.2682 37.1795L22.7363 -2.9203L43.2682 -43.0201L57.1048 -85.8932L99.9779 -99.7298L140.078 -120.262Z" fill="url(#paint2_linear_661_8549)"/>
<path d="M140.078 -120.262L180.178 -99.7298L223.051 -85.8932L236.887 -43.0201L257.419 -2.9203L236.887 37.1795L223.051 80.0526L180.178 93.8892L140.078 114.421L99.9779 93.8892L57.1048 80.0526L43.2682 37.1795L22.7363 -2.9203L43.2682 -43.0201L57.1048 -85.8932L99.9779 -99.7298L140.078 -120.262Z" fill="url(#paint3_radial_661_8549)" style="mix-blend-mode:plus-lighter"/>
<path fill-rule="evenodd" clip-rule="evenodd" d="M138.317 -25.1616L127.951 -29.3125L52.7818 158.397L68.1284 150.109L138.317 -25.1616ZM169.413 -12.7088L159.048 -16.8597L88.8593 158.411L94.2436 175L169.413 -12.7088Z" fill="#FFD8B1"/>
<path d="M68.1284 150.109L83.4749 141.821L88.8593 158.411L159.048 -16.8597L138.317 -25.1616L68.1284 150.109Z" fill="white"/>
<path fill-rule="evenodd" clip-rule="evenodd" d="M142.855 -25.1616L153.221 -29.3125L228.39 158.397L213.044 150.109L142.855 -25.1616ZM111.759 -12.7088L122.124 -16.8597L192.313 158.411L186.928 175L111.759 -12.7088Z" fill="#FFD8B1"/>
<path d="M213.044 150.109L197.697 141.821L192.313 158.411L122.124 -16.8597L142.855 -25.1616L213.044 150.109Z" fill="white"/>
<g filter="url(#filter0_d_661_8549)">
<path d="M123.057 -75.6929C132.862 -84.0596 147.294 -84.0596 157.1 -75.6929C161.903 -71.5945 168.024 -69.3667 174.338 -69.4188C187.227 -69.5252 198.283 -60.2485 200.416 -47.5364C201.461 -41.3093 204.718 -35.6684 209.588 -31.6498C219.53 -23.4462 222.037 -9.23336 215.5 1.87598C212.298 7.31796 211.166 13.7326 212.314 19.9416C214.657 32.6167 207.441 45.1152 195.293 49.4237C189.342 51.5342 184.352 55.721 181.24 61.2151C174.888 72.4309 161.326 77.367 149.25 72.8585C143.335 70.65 136.821 70.65 130.906 72.8585C118.83 77.367 105.269 72.4309 98.9161 61.2151C95.8042 55.721 90.8145 51.5342 84.8635 49.4237C72.7151 45.1152 65.499 32.6167 67.8421 19.9416C68.9898 13.7326 67.8587 7.31796 64.6566 1.87598C58.1197 -9.23336 60.6258 -23.4462 70.5681 -31.6498C75.4384 -35.6684 78.6952 -41.3093 79.7402 -47.5364C81.8737 -60.2485 92.9293 -69.5252 105.819 -69.4188C112.133 -69.3667 118.253 -71.5945 123.057 -75.6929Z" fill="url(#paint4_linear_661_8549)"/>
</g>
<g filter="url(#filter1_i_661_8549)">
<path d="M120.939 -54.6939C133.304 -59.1818 146.853 -59.1818 159.218 -54.6939C171.575 -50.1837 181.954 -41.4746 188.542 -30.0886C195.109 -18.6907 197.462 -5.34761 195.189 7.60891C192.893 20.5613 186.119 32.2951 176.049 40.7595C165.965 49.2059 153.233 53.8399 140.079 53.8517C126.925 53.8399 114.193 49.2059 104.108 40.7595C94.0392 32.2951 87.2647 20.5613 84.9688 7.60891C82.6963 -5.34761 85.049 -18.6907 91.6159 -30.0886C98.2033 -41.4746 108.582 -50.1837 120.939 -54.6939Z" fill="url(#paint5_linear_661_8549)"/>
</g>
<path d="M127.241 -19.9578C135.238 -25.5429 145.871 -25.5429 153.868 -19.9578C161.651 -14.0779 164.937 -3.96521 162.096 5.36653C158.909 14.5856 150.307 20.8356 140.554 21.0178C130.802 20.8356 122.199 14.5856 119.012 5.36653C116.172 -3.96521 119.457 -14.0779 127.241 -19.9578Z" fill="white"/>
</g>
<defs>
<filter id="filter0_d_661_8549" x="61.0328" y="-81.9688" width="158.091" height="168.869" filterUnits="userSpaceOnUse" color-interpolation-filters="sRGB">
<feFlood flood-opacity="0" result="BackgroundImageFix"/>
<feColorMatrix in="SourceAlpha" type="matrix" values="0 0 0 0 0 0 0 0 0 0 0 0 0 0 0 0 0 0 127 0" result="hardAlpha"/>
<feOffset dy="12.3827"/>
<feComposite in2="hardAlpha" operator="out"/>
<feColorMatrix type="matrix" values="0 0 0 0 0 0 0 0 0 0 0 0 0 0 0 0 0 0 0.25 0"/>
<feBlend mode="normal" in2="BackgroundImageFix" result="effect1_dropShadow_661_8549"/>
<feBlend mode="normal" in="SourceGraphic" in2="effect1_dropShadow_661_8549" result="shape"/>
</filter>
<filter id="filter1_i_661_8549" x="84.1252" y="-58.0605" width="111.907" height="111.912" filterUnits="userSpaceOnUse" color-interpolation-filters="sRGB">
<feFlood flood-opacity="0" result="BackgroundImageFix"/>
<feBlend mode="normal" in="SourceGraphic" in2="BackgroundImageFix" result="shape"/>
<feColorMatrix in="SourceAlpha" type="matrix" values="0 0 0 0 0 0 0 0 0 0 0 0 0 0 0 0 0 0 127 0" result="hardAlpha"/>
<feOffset dy="9.52514"/>
<feComposite in2="hardAlpha" operator="arithmetic" k2="-1" k3="1"/>
<feColorMatrix type="matrix" values="0 0 0 0 0 0 0 0 0 0 0 0 0 0 0 0 0 0 0.25 0"/>
<feBlend mode="normal" in2="shape" result="effect1_innerShadow_661_8549"/>
</filter>
<linearGradient id="paint0_linear_661_8549" x1="140.079" y1="-143" x2="140.079" y2="137.158" gradientUnits="userSpaceOnUse">
<stop stop-color="#CD7F32"/>
<stop offset="1" stop-color="#7D4B1A"/>
</linearGradient>
<linearGradient id="paint1_linear_661_8549" x1="140.077" y1="-134.067" x2="140.077" y2="154.211" gradientUnits="userSpaceOnUse">
<stop stop-color="#7D4B1A"/>
<stop offset="1" stop-color="#CD7F32"/>
</linearGradient>
<linearGradient id="paint2_linear_661_8549" x1="140.078" y1="-120.262" x2="140.078" y2="114.421" gradientUnits="userSpaceOnUse">
<stop stop-color="#CD7F32"/>
<stop offset="1" stop-color="#804D1B"/>
</linearGradient>
<radialGradient id="paint3_radial_661_8549" cx="0" cy="0" r="1" gradientUnits="userSpaceOnUse" gradientTransform="translate(201.376 -153.556) rotate(105) scale(226.988)">
<stop stop-color="#FFDB66"/>
<stop offset="1" stop-color="#FFDB66" stop-opacity="0"/>
</radialGradient>
<linearGradient id="paint4_linear_661_8549" x1="191.99" y1="-60.6889" x2="140.078" y2="85.9983" gradientUnits="userSpaceOnUse">
<stop stop-color="#FFD6AE"/>
<stop offset="1" stop-color="#FFE8D2"/>
</linearGradient>
<linearGradient id="paint5_linear_661_8549" x1="140.079" y1="-152.129" x2="140.079" y2="57.4237" gradientUnits="userSpaceOnUse">
<stop stop-color="#89541F"/>
<stop offset="1" stop-color="#C47930"/>
</linearGradient>
</defs>
</svg>
