<svg width="110" height="124" viewBox="0 0 110 124" fill="none" xmlns="http://www.w3.org/2000/svg">
<path d="M54.6222 0L73.2885 9.55754L93.2459 15.9985L99.6868 35.9558L109.244 54.6222L99.6868 73.2885L93.2459 93.2459L73.2885 99.6868L54.6222 109.244L35.9558 99.6868L15.9985 93.2459L9.55754 73.2885L0 54.6222L9.55754 35.9558L15.9985 15.9985L35.9558 9.55754L54.6222 0Z" fill="url(#paint0_linear_661_8640)"/>
<path d="M54.6221 5.69922L71.3406 14.2595L89.2155 20.0283L94.9843 37.9031L103.545 54.6217L94.9843 71.3403L89.2155 89.2151L71.3406 94.9839L54.6221 103.544L37.9035 94.9839L20.0286 89.2151L14.2598 71.3403L5.69958 54.6217L14.2598 37.9031L20.0286 20.0283L37.9035 14.2595L54.6221 5.69922Z" fill="url(#paint1_linear_661_8640)"/>
<path d="M54.6219 8.86523L70.2584 16.8714L86.9763 22.2668L92.3717 38.9847L100.378 54.6212L92.3717 70.2577L86.9763 86.9756L70.2584 92.371L54.6219 100.377L38.9855 92.371L22.2676 86.9756L16.8721 70.2577L8.86597 54.6212L16.8721 38.9847L22.2676 22.2668L38.9855 16.8714L54.6219 8.86523Z" fill="url(#paint2_linear_661_8640)"/>
<path d="M54.6219 8.86523L70.2584 16.8714L86.9763 22.2668L92.3717 38.9847L100.378 54.6212L92.3717 70.2577L86.9763 86.9756L70.2584 92.371L54.6219 100.377L38.9855 92.371L22.2676 86.9756L16.8721 70.2577L8.86597 54.6212L16.8721 38.9847L22.2676 22.2668L38.9855 16.8714L54.6219 8.86523Z" fill="url(#paint3_radial_661_8640)" style="mix-blend-mode:plus-lighter"/>
<path fill-rule="evenodd" clip-rule="evenodd" d="M53.9355 45.9487L49.8936 44.3301L20.5821 117.525L26.5663 114.293L53.9355 45.9487ZM66.0611 50.8045L62.0192 49.1859L34.6501 117.531L36.7497 124L66.0611 50.8045Z" fill="#B9E2FF"/>
<path d="M26.5663 114.293L32.5505 111.062L34.6501 117.531L62.0192 49.1859L53.9355 45.9487L26.5663 114.293Z" fill="white"/>
<path fill-rule="evenodd" clip-rule="evenodd" d="M55.7058 45.9487L59.7477 44.3301L89.0591 117.525L83.0749 114.293L55.7058 45.9487ZM43.5801 50.8045L47.622 49.1859L74.9911 117.531L72.8916 124L43.5801 50.8045Z" fill="#B9E2FF"/>
<path d="M83.0749 114.293L77.0907 111.062L74.9911 117.531L47.622 49.1859L55.7058 45.9487L83.0749 114.293Z" fill="white"/>
<g filter="url(#filter0_d_661_8640)">
<path d="M47.9853 26.2455C51.8089 22.983 57.4365 22.983 61.26 26.2455C63.133 27.8436 65.5197 28.7123 67.9818 28.692C73.0078 28.6505 77.3189 32.2678 78.1508 37.2248C78.5583 39.653 79.8282 41.8526 81.7273 43.4196C85.6042 46.6185 86.5814 52.1606 84.0325 56.4926C82.7838 58.6146 82.3428 61.1159 82.7903 63.5371C83.704 68.4796 80.8901 73.3532 76.153 75.0333C73.8325 75.8562 71.8868 77.4888 70.6734 79.6312C68.1963 84.0047 62.908 85.9294 58.1992 84.1714C55.8926 83.3102 53.3527 83.3102 51.0461 84.1714C46.3373 85.9294 41.0491 84.0047 38.572 79.6312C37.3586 77.4888 35.4129 75.8562 33.0924 75.0333C28.3552 73.3532 25.5414 68.4796 26.455 63.5371C26.9026 61.1159 26.4615 58.6146 25.2129 56.4926C22.6639 52.1606 23.6411 46.6185 27.518 43.4196C29.4171 41.8526 30.6871 39.653 31.0946 37.2248C31.9265 32.2678 36.2375 28.6505 41.2636 28.692C43.7256 28.7123 46.1124 27.8436 47.9853 26.2455Z" fill="url(#paint4_linear_661_8640)"/>
</g>
<g filter="url(#filter1_i_661_8640)">
<path d="M47.1602 34.4334C51.9818 32.6834 57.2651 32.6834 62.0867 34.4334C66.9051 36.1921 70.9523 39.5881 73.521 44.028C76.0817 48.4724 76.9991 53.6754 76.113 58.7277C75.2177 63.7783 72.5761 68.3538 68.6497 71.6544C64.7174 74.948 59.7528 76.7549 54.6234 76.7596C49.4941 76.7549 44.5294 74.948 40.5971 71.6544C36.6708 68.3538 34.0291 63.7783 33.1339 58.7277C32.2477 53.6754 33.1652 48.4724 35.7258 44.028C38.2945 39.5881 42.3417 36.1921 47.1602 34.4334Z" fill="url(#paint5_linear_661_8640)"/>
</g>
<path d="M54.809 44.3535L57.0171 51.3002L64.1371 49.7391L59.2252 55.1248L64.1371 60.5104L57.0171 58.9493L54.809 65.896L52.6009 58.9493L45.4808 60.5104L50.3928 55.1248L45.4808 49.7391L52.6009 51.3002L54.809 44.3535Z" fill="white"/>
<defs>
<filter id="filter0_d_661_8640" x="23.7998" y="23.7988" width="61.6456" height="65.848" filterUnits="userSpaceOnUse" color-interpolation-filters="sRGB">
<feFlood flood-opacity="0" result="BackgroundImageFix"/>
<feColorMatrix in="SourceAlpha" type="matrix" values="0 0 0 0 0 0 0 0 0 0 0 0 0 0 0 0 0 0 127 0" result="hardAlpha"/>
<feOffset dy="4.82849"/>
<feComposite in2="hardAlpha" operator="out"/>
<feColorMatrix type="matrix" values="0 0 0 0 0 0 0 0 0 0 0 0 0 0 0 0 0 0 0.25 0"/>
<feBlend mode="normal" in2="BackgroundImageFix" result="effect1_dropShadow_661_8640"/>
<feBlend mode="normal" in="SourceGraphic" in2="effect1_dropShadow_661_8640" result="shape"/>
</filter>
<filter id="filter1_i_661_8640" x="32.8049" y="33.1211" width="43.6371" height="43.6387" filterUnits="userSpaceOnUse" color-interpolation-filters="sRGB">
<feFlood flood-opacity="0" result="BackgroundImageFix"/>
<feBlend mode="normal" in="SourceGraphic" in2="BackgroundImageFix" result="shape"/>
<feColorMatrix in="SourceAlpha" type="matrix" values="0 0 0 0 0 0 0 0 0 0 0 0 0 0 0 0 0 0 127 0" result="hardAlpha"/>
<feOffset dy="3.71422"/>
<feComposite in2="hardAlpha" operator="arithmetic" k2="-1" k3="1"/>
<feColorMatrix type="matrix" values="0 0 0 0 0 0 0 0 0 0 0 0 0 0 0 0 0 0 0.25 0"/>
<feBlend mode="normal" in2="shape" result="effect1_innerShadow_661_8640"/>
</filter>
<linearGradient id="paint0_linear_661_8640" x1="54.6222" y1="0" x2="54.6222" y2="109.244" gradientUnits="userSpaceOnUse">
<stop stop-color="#78DCF0"/>
<stop offset="1" stop-color="#1C59F0"/>
</linearGradient>
<linearGradient id="paint1_linear_661_8640" x1="54.6221" y1="3.48267" x2="54.6221" y2="115.894" gradientUnits="userSpaceOnUse">
<stop stop-color="#1C59F0"/>
<stop offset="1" stop-color="#78DCF0"/>
</linearGradient>
<linearGradient id="paint2_linear_661_8640" x1="54.6219" y1="8.86523" x2="54.6219" y2="100.377" gradientUnits="userSpaceOnUse">
<stop stop-color="#78DCF0"/>
<stop offset="1" stop-color="#1C59F0"/>
</linearGradient>
<radialGradient id="paint3_radial_661_8640" cx="0" cy="0" r="1" gradientUnits="userSpaceOnUse" gradientTransform="translate(101.006 -36.0991) rotate(120) scale(141.318)">
<stop stop-color="white"/>
<stop offset="1" stop-color="white" stop-opacity="0"/>
</radialGradient>
<linearGradient id="paint4_linear_661_8640" x1="74.8652" y1="32.0961" x2="54.6227" y2="89.2951" gradientUnits="userSpaceOnUse">
<stop stop-color="#94B5FF"/>
<stop offset="1" stop-color="#C9F6FF"/>
</linearGradient>
<linearGradient id="paint5_linear_661_8640" x1="54.6234" y1="23.2734" x2="54.6234" y2="78.1524" gradientUnits="userSpaceOnUse">
<stop stop-color="#1C59F0"/>
<stop offset="1" stop-color="#78DCF0"/>
</linearGradient>
</defs>
</svg>
