<svg width="110" height="124" viewBox="0 0 110 124" fill="none" xmlns="http://www.w3.org/2000/svg">
<path d="M54.6222 0L73.2885 9.55754L93.2459 15.9985L99.6868 35.9558L109.244 54.6222L99.6868 73.2885L93.2459 93.2459L73.2885 99.6868L54.6222 109.244L35.9558 99.6868L15.9985 93.2459L9.55754 73.2885L0 54.6222L9.55754 35.9558L15.9985 15.9985L35.9558 9.55754L54.6222 0Z" fill="url(#paint0_linear_661_8610)"/>
<path d="M54.6222 5.69922L71.3408 14.2595L89.2156 20.0283L94.9844 37.9031L103.545 54.6217L94.9844 71.3403L89.2156 89.2151L71.3408 94.9839L54.6222 103.544L37.9036 94.9839L20.0288 89.2151L14.2599 71.3403L5.69971 54.6217L14.2599 37.9031L20.0288 20.0283L37.9036 14.2595L54.6222 5.69922Z" fill="url(#paint1_linear_661_8610)"/>
<path d="M54.6221 8.86523L70.2585 16.8714L86.9764 22.2668L92.3718 38.9847L100.378 54.6212L92.3718 70.2577L86.9764 86.9756L70.2585 92.371L54.6221 100.377L38.9856 92.371L22.2677 86.9756L16.8723 70.2577L8.86609 54.6212L16.8723 38.9847L22.2677 22.2668L38.9856 16.8714L54.6221 8.86523Z" fill="url(#paint2_linear_661_8610)"/>
<path d="M54.6221 8.86523L70.2585 16.8714L86.9764 22.2668L92.3718 38.9847L100.378 54.6212L92.3718 70.2577L86.9764 86.9756L70.2585 92.371L54.6221 100.377L38.9856 92.371L22.2677 86.9756L16.8723 70.2577L8.86609 54.6212L16.8723 38.9847L22.2677 22.2668L38.9856 16.8714L54.6221 8.86523Z" fill="url(#paint3_radial_661_8610)" style="mix-blend-mode:plus-lighter"/>
<path fill-rule="evenodd" clip-rule="evenodd" d="M53.9356 45.9487L49.8937 44.3301L20.5822 117.525L26.5664 114.293L53.9356 45.9487ZM66.0613 50.8045L62.0194 49.1859L34.6502 117.531L36.7498 124L66.0613 50.8045Z" fill="#FFD8B1"/>
<path d="M26.5664 114.293L32.5507 111.062L34.6502 117.531L62.0194 49.1859L53.9356 45.9487L26.5664 114.293Z" fill="white"/>
<path fill-rule="evenodd" clip-rule="evenodd" d="M55.7044 45.9487L59.7463 44.3301L89.0578 117.525L83.0736 114.293L55.7044 45.9487ZM43.5788 50.8045L47.6206 49.1859L74.9898 117.531L72.8902 124L43.5788 50.8045Z" fill="#FFD8B1"/>
<path d="M83.0736 114.293L77.0894 111.062L74.9898 117.531L47.6206 49.1859L55.7044 45.9487L83.0736 114.293Z" fill="white"/>
<g filter="url(#filter0_d_661_8610)">
<path d="M47.9842 26.2455C51.8078 22.983 57.4354 22.983 61.2589 26.2455C63.1319 27.8436 65.5186 28.7123 67.9807 28.692C73.0067 28.6505 77.3178 32.2678 78.1497 37.2248C78.5572 39.653 79.8271 41.8526 81.7262 43.4196C85.6031 46.6185 86.5803 52.1606 84.0314 56.4926C82.7827 58.6146 82.3417 61.1159 82.7892 63.5371C83.7029 68.4796 80.889 73.3532 76.1519 75.0333C73.8314 75.8562 71.8857 77.4888 70.6723 79.6312C68.1952 84.0047 62.9069 85.9294 58.1981 84.1714C55.8915 83.3102 53.3516 83.3102 51.045 84.1714C46.3362 85.9294 41.048 84.0047 38.5709 79.6312C37.3575 77.4888 35.4118 75.8562 33.0913 75.0333C28.3541 73.3532 25.5403 68.4796 26.4539 63.5371C26.9015 61.1159 26.4604 58.6146 25.2118 56.4926C22.6628 52.1606 23.64 46.6185 27.5169 43.4196C29.416 41.8526 30.686 39.653 31.0935 37.2248C31.9254 32.2678 36.2364 28.6505 41.2625 28.692C43.7245 28.7123 46.1113 27.8436 47.9842 26.2455Z" fill="url(#paint4_linear_661_8610)"/>
</g>
<g filter="url(#filter1_i_661_8610)">
<path d="M47.1576 34.4334C51.9792 32.6834 57.2625 32.6834 62.0841 34.4334C66.9026 36.1921 70.9498 39.5881 73.5185 44.028C76.0792 48.4724 76.9966 53.6754 76.1104 58.7277C75.2152 63.7783 72.5735 68.3538 68.6472 71.6544C64.7149 74.948 59.7502 76.7549 54.6209 76.7596C49.4915 76.7549 44.5269 74.948 40.5946 71.6544C36.6682 68.3538 34.0266 63.7783 33.1313 58.7277C32.2452 53.6754 33.1626 48.4724 35.7233 44.028C38.292 39.5881 42.3392 36.1921 47.1576 34.4334Z" fill="url(#paint5_linear_661_8610)"/>
</g>
<path d="M49.615 47.9792C52.7334 45.8013 56.8796 45.8013 59.9981 47.9792C63.033 50.272 64.3143 54.2153 63.2067 57.8541C61.9639 61.449 58.6095 63.8861 54.8065 63.9572C51.0035 63.8861 47.6492 61.449 46.4064 57.8541C45.2988 54.2153 46.58 50.272 49.615 47.9792Z" fill="white"/>
<defs>
<filter id="filter0_d_661_8610" x="23.7987" y="23.7988" width="61.6456" height="65.848" filterUnits="userSpaceOnUse" color-interpolation-filters="sRGB">
<feFlood flood-opacity="0" result="BackgroundImageFix"/>
<feColorMatrix in="SourceAlpha" type="matrix" values="0 0 0 0 0 0 0 0 0 0 0 0 0 0 0 0 0 0 127 0" result="hardAlpha"/>
<feOffset dy="4.82849"/>
<feComposite in2="hardAlpha" operator="out"/>
<feColorMatrix type="matrix" values="0 0 0 0 0 0 0 0 0 0 0 0 0 0 0 0 0 0 0.25 0"/>
<feBlend mode="normal" in2="BackgroundImageFix" result="effect1_dropShadow_661_8610"/>
<feBlend mode="normal" in="SourceGraphic" in2="effect1_dropShadow_661_8610" result="shape"/>
</filter>
<filter id="filter1_i_661_8610" x="32.8024" y="33.1211" width="43.637" height="43.6387" filterUnits="userSpaceOnUse" color-interpolation-filters="sRGB">
<feFlood flood-opacity="0" result="BackgroundImageFix"/>
<feBlend mode="normal" in="SourceGraphic" in2="BackgroundImageFix" result="shape"/>
<feColorMatrix in="SourceAlpha" type="matrix" values="0 0 0 0 0 0 0 0 0 0 0 0 0 0 0 0 0 0 127 0" result="hardAlpha"/>
<feOffset dy="3.71422"/>
<feComposite in2="hardAlpha" operator="arithmetic" k2="-1" k3="1"/>
<feColorMatrix type="matrix" values="0 0 0 0 0 0 0 0 0 0 0 0 0 0 0 0 0 0 0.25 0"/>
<feBlend mode="normal" in2="shape" result="effect1_innerShadow_661_8610"/>
</filter>
<linearGradient id="paint0_linear_661_8610" x1="54.6222" y1="0" x2="54.6222" y2="109.244" gradientUnits="userSpaceOnUse">
<stop stop-color="#CD7F32"/>
<stop offset="1" stop-color="#7D4B1A"/>
</linearGradient>
<linearGradient id="paint1_linear_661_8610" x1="54.6222" y1="3.48267" x2="54.6222" y2="115.894" gradientUnits="userSpaceOnUse">
<stop stop-color="#7D4B1A"/>
<stop offset="1" stop-color="#CD7F32"/>
</linearGradient>
<linearGradient id="paint2_linear_661_8610" x1="54.6221" y1="8.86523" x2="54.6221" y2="100.377" gradientUnits="userSpaceOnUse">
<stop stop-color="#CD7F32"/>
<stop offset="1" stop-color="#804D1B"/>
</linearGradient>
<radialGradient id="paint3_radial_661_8610" cx="0" cy="0" r="1" gradientUnits="userSpaceOnUse" gradientTransform="translate(78.5247 -4.11743) rotate(105) scale(88.5115)">
<stop stop-color="#FFDB66"/>
<stop offset="1" stop-color="#FFDB66" stop-opacity="0"/>
</radialGradient>
<linearGradient id="paint4_linear_661_8610" x1="74.8641" y1="32.0961" x2="54.6216" y2="89.2951" gradientUnits="userSpaceOnUse">
<stop stop-color="#FFD6AE"/>
<stop offset="1" stop-color="#FFE8D2"/>
</linearGradient>
<linearGradient id="paint5_linear_661_8610" x1="54.6209" y1="-3.5605" x2="54.6209" y2="78.1524" gradientUnits="userSpaceOnUse">
<stop stop-color="#89541F"/>
<stop offset="1" stop-color="#C47930"/>
</linearGradient>
</defs>
</svg>
